HIERARCHY
ROOT hip
{
  OFFSET 0 0 0
  CHANNELS 6 Xposition Yposition Zposition Zrotation Yrotation Xrotation
  JOINT abdomen
  {
    OFFSET 0 20.6881 -0.73152
    CHANNELS 3 Zrotation Xrotation Yrotation
    JOINT chest
    {
      OFFSET 0 11.7043 -0.48768
      CHANNELS 3 Zrotation Xrotation Yrotation
      JOINT neck
      {
        OFFSET 0 22.1894 -2.19456
        CHANNELS 3 Zrotation Xrotation Yrotation
        JOINT head
        {
          OFFSET -0.24384 7.07133 1.2192
          CHANNELS 3 Zrotation Xrotation Yrotation
          JOINT leftEye
          {
            OFFSET 4.14528 8.04674 8.04672
            CHANNELS 3 Zrotation Xrotation Yrotation
            End Site
            {
              OFFSET 1 0 0
            }
          }
          JOINT rightEye
          {
            OFFSET -3.6576 8.04674 8.04672
            CHANNELS 3 Zrotation Xrotation Yrotation
            End Site
            {
              OFFSET 1 0 0
            }
          }
        }
      }
      JOINT rCollar
      {
        OFFSET -2.68224 19.2634 -4.8768
        CHANNELS 3 Zrotation Xrotation Yrotation
        JOINT rShldr
        {
          OFFSET -8.77824 -1.95073 1.46304
          CHANNELS 3 Zrotation Xrotation Yrotation
          JOINT rForeArm
          {
            OFFSET -28.1742 -1.7115 0.48768
            CHANNELS 3 Zrotation Xrotation Yrotation
            JOINT rHand
            {
              OFFSET -22.5879 0.773209 7.07136
              CHANNELS 3 Zrotation Xrotation Yrotation
              JOINT rThumb1
              {
                OFFSET -1.2192 -0.487915 3.41376
                CHANNELS 3 Zrotation Xrotation Yrotation
                JOINT rThumb2
                {
                  OFFSET -3.37035 -0.52449 3.41376
                  CHANNELS 3 Zrotation Xrotation Yrotation
                  End Site
                  {
                    OFFSET -1.78271 -1.18214 1.43049
                  }
                }
              }
              JOINT rIndex1
              {
                OFFSET -7.75947 0.938293 5.60832
                CHANNELS 3 Zrotation Xrotation Yrotation
                JOINT rIndex2
                {
                  OFFSET -2.54057 -0.884171 1.56538
                  CHANNELS 3 Zrotation Xrotation Yrotation
                  End Site
                  {
                    OFFSET -1.62519 -0.234802 1.16502
                  }
                }
              }
              JOINT rMid1
              {
                OFFSET -8.24714 1.18213 3.41376
                CHANNELS 3 Zrotation Xrotation Yrotation
                JOINT rMid2
                {
                  OFFSET -3.10165 -0.590103 1.0647
                  CHANNELS 3 Zrotation Xrotation Yrotation
                  End Site
                  {
                    OFFSET -2.48547 -0.328903 0.83742
                  }
                }
              }
              JOINT rRing1
              {
                OFFSET -8.82822 0.546677 1.51678
                CHANNELS 3 Zrotation Xrotation Yrotation
                JOINT rRing2
                {
                  OFFSET -2.60934 -0.819778 -0.0198488
                  CHANNELS 3 Zrotation Xrotation Yrotation
                  End Site
                  {
                    OFFSET -2.33842 -0.294052 0.168128
                  }
                }
              }
              JOINT rPinky1
              {
                OFFSET -8.27202 -0.0477905 -0.4584
                CHANNELS 3 Zrotation Xrotation Yrotation
                JOINT rPinky2
                {
                  OFFSET -1.82734 -0.647385 -0.700984
                  CHANNELS 3 Zrotation Xrotation Yrotation
                  End Site
                  {
                    OFFSET -1.69225 -0.51767 -0.607171
                  }
                }
              }
            }
          }
        }
      }
      JOINT lCollar
      {
        OFFSET 2.68224 19.2634 -4.8768
        CHANNELS 3 Zrotation Xrotation Yrotation
        JOINT lShldr
        {
          OFFSET 8.77824 -1.95073 1.46304
          CHANNELS 3 Zrotation Xrotation Yrotation
          JOINT lForeArm
          {
            OFFSET 28.1742 -1.7115 0.48768
            CHANNELS 3 Zrotation Xrotation Yrotation
            JOINT lHand
            {
              OFFSET 22.5879 0.773209 7.07136
              CHANNELS 3 Zrotation Xrotation Yrotation
              JOINT lThumb1
              {
                OFFSET 1.2192 -0.487915 3.41376
                CHANNELS 3 Zrotation Xrotation Yrotation
                JOINT lThumb2
                {
                  OFFSET 3.37035 -0.52449 3.41376
                  CHANNELS 3 Zrotation Xrotation Yrotation
                  End Site
                  {
                    OFFSET 1.78271 -1.18214 1.43049
                  }
                }
              }
              JOINT lIndex1
              {
                OFFSET 7.75947 0.938293 5.60832
                CHANNELS 3 Zrotation Xrotation Yrotation
                JOINT lIndex2
                {
                  OFFSET 2.54057 -0.884171 1.56538
                  CHANNELS 3 Zrotation Xrotation Yrotation
                  End Site
                  {
                    OFFSET 1.62519 -0.234802 1.16502
                  }
                }
              }
              JOINT lMid1
              {
                OFFSET 8.24714 1.18213 3.41376
                CHANNELS 3 Zrotation Xrotation Yrotation
                JOINT lMid2
                {
                  OFFSET 3.10165 -0.590103 1.0647
                  CHANNELS 3 Zrotation Xrotation Yrotation
                  End Site
                  {
                    OFFSET 2.48547 -0.328903 0.83742
                  }
                }
              }
              JOINT lRing1
              {
                OFFSET 8.82822 0.546677 1.51678
                CHANNELS 3 Zrotation Xrotation Yrotation
                JOINT lRing2
                {
                  OFFSET 2.60934 -0.819778 -0.0198488
                  CHANNELS 3 Zrotation Xrotation Yrotation
                  End Site
                  {
                    OFFSET 2.33842 -0.294052 0.168128
                  }
                }
              }
              JOINT lPinky1
              {
                OFFSET 8.27202 -0.0477905 -0.4584
                CHANNELS 3 Zrotation Xrotation Yrotation
                JOINT lPinky2
                {
                  OFFSET 1.82734 -0.647385 -0.700984
                  CHANNELS 3 Zrotation Xrotation Yrotation
                  End Site
                  {
                    OFFSET 1.69225 -0.51767 -0.607171
                  }
                }
              }
            }
          }
        }
      }
    }
  }
  JOINT rButtock
  {
    OFFSET -8.77824 4.35084 1.2192
    CHANNELS 3 Zrotation Xrotation Yrotation
    JOINT rThigh
    {
      OFFSET 0 -1.70687 -2.19456
      CHANNELS 3 Zrotation Xrotation Yrotation
      JOINT rShin
      {
        OFFSET 0 -36.8199 0.73152
        CHANNELS 3 Zrotation Xrotation Yrotation
        JOINT rFoot
        {
          OFFSET 0.73152 -45.1104 -5.12064
          CHANNELS 3 Zrotation Xrotation Yrotation
          End Site
          {
            OFFSET -1.1221 -3.69964 12.103
          }
        }
      }
    }
  }
  JOINT lButtock
  {
    OFFSET 8.77824 4.35084 1.2192
    CHANNELS 3 Zrotation Xrotation Yrotation
    JOINT lThigh
    {
      OFFSET 0 -1.70687 -2.19456
      CHANNELS 3 Zrotation Xrotation Yrotation
      JOINT lShin
      {
        OFFSET 0 -36.8199 0.73152
        CHANNELS 3 Zrotation Xrotation Yrotation
        JOINT lFoot
        {
          OFFSET -0.73152 -45.1104 -5.12064
          CHANNELS 3 Zrotation Xrotation Yrotation
          End Site
          {
            OFFSET 1.1221 -3.69964 12.103
          }
        }
      }
    }
  }
}
MOTION
Frames:	5
Frame Time:	0.00833333
3.64645 84.3996 -72.6995 0.0 0.0 0.0 -0.991227 -0.00434164 -0.0274292 -0.27343 -0.00447542 -0.0473709 2.73648e-14 0.0 2.4848e-17 8.16353e-14 3.18055e-15 1.21134e-16 -0.0 0.0 0.0 -0.0 0.0 0.0 1.37153e-14 7.76503e-19 9.93923e-17 2.87901e-13 -1.86361e-16 2.18663e-15 4.91649e-12 -1.47458e-12 -3.49861e-14 5.62985e-11 1.46981e-12 1.62208e-13 1.32786e-10 -8.16593e-15 2.95792e-13 2.29307e-10 -1.59028e-14 5.16045e-13 1.32787e-10 -9.54166e-15 2.95792e-13 7.73091 5.47488 0.417314 1.32785e-10 -8.34896e-15 2.98972e-13 2.90554 0.965183 0.102902 1.32791e-10 -8.05078e-15 3.01358e-13 10.2786 0.731801 0.0259123 1.32776e-10 -4.77083e-15 3.08514e-13 2.22167 -0.733487 -0.20892 1.36185e-14 2.13538e-18 -9.93923e-17 2.84369e-13 -4.03781e-16 3.97569e-16 4.92161e-12 1.46643e-12 -3.49861e-14 5.62771e-11 -1.48599e-12 1.90833e-13 1.32762e-10 -3.68658e-14 3.02153e-13 2.29281e-10 -6.67917e-14 5.19226e-13 1.3276e-10 -3.65764e-14 3.05333e-13 -7.73091 5.47488 -0.417314 1.32764e-10 -3.70733e-14 3.02153e-13 -2.90554 0.965183 -0.102902 1.3276e-10 -3.72721e-14 2.99767e-13 -10.2786 0.731801 -0.0259123 1.32767e-10 -3.49861e-14 2.8943e-13 -2.22167 -0.733487 0.20892 -2.03217e-16 0.0 -3.88251e-19 -0.253752 -1.9193 -0.0128555 -0.00928949 -2.07855 -0.0767359 -0.497403 3.99655 0.138115 2.03217e-16 0.0 3.88251e-19 -1.25486 -5.46677 0.109735 -9.52312e-05 4.34723 -0.0243754 0.511574 1.11837 -0.0811161
2.72169 82.6094 -74.7525 -3.2691 -2.0219 8.9856 -0.084795 1.08942 0.070979 0.0196625 0.989517 -0.0139396 -0.533197 0.403732 0.136309 -0.0740506 1.84732 0.398579 -0.0 0.0 0.0 -0.0 0.0 0.0 2.53853e-14 -1.70696e-14 7.7922e-15 21.2266 2.11719 3.16115 -3.79449 -1.64742 6.00725 0.140223 8.32297 1.12564 6.92663e-11 1.0674e-10 -1.84734e-10 1.15233e-10 1.87289e-10 -3.18639e-10 6.9269e-11 1.06739e-10 -1.84737e-10 7.73091 5.47488 0.417314 6.9265e-11 1.06738e-10 -1.8473e-10 2.90554 0.965183 0.102902 6.92718e-11 1.06739e-10 -1.8473e-10 10.2786 0.731801 0.0259123 6.92592e-11 1.06741e-10 -1.84724e-10 2.22167 -0.733487 -0.20892 2.53119e-14 -1.70697e-14 7.57866e-15 -20.9484 5.64028 -2.53412 2.63141 -0.992527 -4.30433 -0.000518651 -0.535602 0.0752637 -4.2791e-11 -8.0043e-11 5.00451e-11 -7.38213e-11 -1.38372e-10 8.73305e-11 -4.27943e-11 -8.00436e-11 5.0052e-11 -7.73091 5.47488 -0.417314 -4.27885e-11 -8.00448e-11 5.00478e-11 -2.90554 0.965183 -0.102902 -4.27933e-11 -8.0045e-11 5.00438e-11 -10.2786 0.731801 -0.0259123 -4.2787e-11 -8.00428e-11 5.00332e-11 -2.22167 -0.733487 0.20892 -2.03217e-16 0.0 -3.88251e-19 -0.392249 -7.88818 -0.777748 -0.0054147 5.84566 0.0424931 -0.506532 -0.076219 -0.236961 2.03217e-16 0.0 3.88251e-19 -0.111272 -10.4635 2.85559 -0.0126361 10.5019 -0.127231 0.66071 -1.65476 1.78958
2.71755 82.607 -74.7338 -3.2619 -2.1101 8.8949 0.867851 2.24634 0.179121 0.327848 2.0379 0.0225902 -1.09772 0.83038 0.278661 -0.179338 3.78944 0.817517 -0.0 0.0 0.0 -0.0 0.0 0.0 3.77609e-14 -3.12078e-14 1.52381e-14 43.4102 4.32498 6.51669 -7.4338 -3.32953 12.3758 -0.0819964 17.1063 2.39676 2.9262e-11 2.19685e-10 -4.12108e-10 4.07455e-11 3.86326e-10 -7.11544e-10 2.92667e-11 2.19685e-10 -4.12113e-10 7.73091 5.47488 0.417314 2.92609e-11 2.19683e-10 -4.12103e-10 2.90554 0.965183 0.102902 2.92682e-11 2.19683e-10 -4.12105e-10 10.2786 0.731801 0.0259123 2.92576e-11 2.19685e-10 -4.12101e-10 2.22167 -0.733487 -0.20892 3.77115e-14 -3.12096e-14 1.50082e-14 -42.5439 11.5846 -5.29979 5.25819 -2.02661 -8.86974 0.00051906 -1.12232 0.157735 -2.42321e-10 -1.35215e-10 1.47822e-10 -4.18292e-10 -2.33698e-10 2.57202e-10 -2.42326e-10 -1.35216e-10 1.47833e-10 -7.73091 5.47488 -0.417314 -2.42318e-10 -1.35218e-10 1.47828e-10 -2.90554 0.965183 -0.102902 -2.42324e-10 -1.35218e-10 1.47822e-10 -10.2786 0.731801 -0.0259123 -2.42318e-10 -1.35216e-10 1.47811e-10 -2.22167 -0.733487 0.20892 -2.03217e-16 0.0 -3.88251e-19 -0.71905 -14.2085 -1.62739 -0.0379976 14.2402 0.173552 -0.573151 -4.38892 -0.627952 2.03217e-16 0.0 3.88251e-19 1.63605 -15.6989 5.88453 -0.00084517 17.0069 -0.24221 1.015 -4.57676 3.77424
2.71218 82.6128 -74.6871 -3.2683 -2.1646 8.7977 1.71678 3.27692 0.268195 0.602365 2.9775 0.0530007 -1.60536 1.21117 0.409008 -0.299559 5.54087 1.20073 -0.0 0.0 0.0 -0.0 0.0 0.0 4.87253e-14 -5.12102e-14 2.31778e-14 62.9789 6.27407 9.53461 -10.3631 -4.72536 18.0778 -0.645412 24.9283 3.68507 -5.7773e-11 3.20235e-10 -5.54794e-10 -1.12915e-10 5.61898e-10 -9.56948e-10 -5.77668e-11 3.20235e-10 -5.54802e-10 7.73091 5.47488 0.417314 -5.7774e-11 3.20232e-10 -5.54789e-10 2.90554 0.965183 0.102902 -5.77661e-11 3.20232e-10 -5.54793e-10 10.2786 0.731801 0.0259123 -5.77752e-11 3.20233e-10 -5.5479e-10 2.22167 -0.733487 -0.20892 4.86988e-14 -5.12135e-14 2.29348e-14 -61.2969 16.7855 -7.90434 7.45058 -2.91044 -12.928 0.00266685 -1.6068 0.22587 -3.93897e-10 -2.40055e-10 1.49531e-10 -6.80026e-10 -4.14983e-10 2.60953e-10 -3.93904e-10 -2.40058e-10 1.49545e-10 -7.73091 5.47488 -0.417314 -3.93893e-10 -2.4006e-10 1.49539e-10 -2.90554 0.965183 -0.102902 -3.939e-10 -2.40061e-10 1.49532e-10 -10.2786 0.731801 -0.0259123 -3.93895e-10 -2.40058e-10 1.49521e-10 -2.22167 -0.733487 0.20892 -2.03217e-16 0.0 -3.88251e-19 -1.17368 -19.8117 -2.42933 -0.101714 21.6938 0.301545 -0.685619 -8.22055 -0.996684 2.03217e-16 0.0 3.88251e-19 3.69356 -20.2759 8.75189 0.0338089 22.8109 -0.354407 1.50472 -7.16975 5.57242
2.69006 82.6175 -74.6237 -3.2489 -2.1638 8.718 2.31514 3.9917 0.309171 0.795355 3.64516 0.0680197 -1.96683 1.47734 0.509269 -0.404302 6.81656 1.49011 -0.0 0.0 0.0 -0.0 0.0 0.0 5.61617e-14 -8.58732e-14 3.23522e-14 76.4998 7.64938 11.6607 -12.232 -5.61273 22.0599 -1.28431 30.3855 4.72693 -2.62385e-10 3.89796e-10 -4.85763e-10 -4.64506e-10 6.78807e-10 -8.33604e-10 -2.62378e-10 3.89797e-10 -4.85772e-10 7.73091 5.47488 0.417314 -2.62386e-10 3.89793e-10 -4.85757e-10 2.90554 0.965183 0.102902 -2.62378e-10 3.89793e-10 -4.85762e-10 10.2786 0.731801 0.0259123 -2.62386e-10 3.89794e-10 -4.8576e-10 2.22167 -0.733487 -0.20892 5.61554e-14 -8.58771e-14 3.21037e-14 -74.0686 20.2587 -9.81288 8.87267 -3.48392 -15.7037 0.00413449 -1.83565 0.258073 -4.25588e-10 -4.69068e-10 -8.89315e-11 -7.34919e-10 -8.11169e-10 -1.50598e-10 -4.25595e-10 -4.69071e-10 -8.89156e-11 -7.73091 5.47488 -0.417314 -4.25583e-10 -4.69074e-10 -8.89219e-11 -2.90554 0.965183 -0.102902 -4.25591e-10 -4.69074e-10 -8.89299e-11 -10.2786 0.731801 -0.0259123 -4.25586e-10 -4.69073e-10 -8.8941e-11 -2.22167 -0.733487 0.20892 -2.03217e-16 0.0 -3.88251e-19 -1.57347 -23.6358 -2.99656 -0.167402 26.7953 0.400179 -0.80328 -10.8507 -1.29794 2.03217e-16 0.0 3.88251e-19 5.42386 -23.3706 10.8607 0.0735314 26.8629 -0.440695 1.94899 -8.97077 6.8625
